<svg width="181" height="111" viewBox="0 0 181 111" fill="none" xmlns="http://www.w3.org/2000/svg">
<path fill-rule="evenodd" clip-rule="evenodd" d="M57.8093 22.7389C60.8023 19.6849 63.7754 16.6512 66.75 13.6175L66.7471 13.6147C66.7345 13.588 66.7225 13.5605 66.7106 13.5331L66.7103 13.5325C66.6984 13.5053 66.6865 13.478 66.674 13.4515H65.9422C65.4807 13.4515 65.0189 13.4533 64.5571 13.4552H64.5568H64.5565H64.5563H64.556H64.5557H64.5554H64.5552H64.5549C63.3981 13.4598 62.2406 13.4644 61.0846 13.4402C60.5415 13.429 60.1615 13.6006 59.7844 13.9776C57.3848 16.3723 54.9756 18.7575 52.5665 21.1427C51.763 21.9382 50.9595 22.7337 50.1564 23.5296L47.8842 25.7804L47.8814 25.7832C45.6038 28.0395 43.3266 30.2954 41.0463 32.5498C40.9562 32.6378 40.8566 32.7164 40.7475 32.8025C40.6998 32.8401 40.6502 32.8792 40.5988 32.9212C40.5857 32.8734 40.5761 32.8423 40.5694 32.8207L40.5693 32.8205L40.5693 32.8204C40.5603 32.7913 40.5566 32.7793 40.5566 32.7664C40.5481 21.9484 40.5425 11.1332 40.5369 0.315116C40.5369 0.250404 40.5284 0.18288 40.5172 0.115355C40.515 0.100079 40.5027 0.0864965 40.4907 0.0732934C40.4872 0.0694736 40.4838 0.0656857 40.4806 0.0618977C40.4756 0.0559452 40.4707 0.0496429 40.4653 0.0428674L40.4652 0.0427056C40.4555 0.030306 40.4445 0.016322 40.4299 0H35.1727V47.0873C35.9973 47.228 40.0106 47.1942 40.5425 47.0366V46.3192C40.5425 45.7686 40.5433 45.2179 40.5441 44.667V44.6667V44.6665V44.6662V44.6659V44.6656V44.6653V44.665V44.6647C40.5463 43.1473 40.5485 41.6292 40.5341 40.1125C40.5313 39.6961 40.6495 39.4092 40.9562 39.1194C43.1044 37.0988 45.2441 35.0698 47.3834 33.0413L47.3856 33.0392C48.2809 32.1902 49.1762 31.3413 50.072 30.4931C50.1753 30.396 50.2847 30.3034 50.4124 30.1954L50.4126 30.1952L50.4534 30.1607C50.4872 30.1321 50.5223 30.1023 50.5589 30.071C50.6892 30.2642 50.812 30.4448 50.931 30.6198C51.0304 30.7659 51.127 30.908 51.2231 31.0502L52.2783 32.6232C55.4219 37.3091 58.5646 41.9936 61.6982 46.685C61.9177 47.0141 62.1456 47.1801 62.5622 47.1745C63.6712 47.1591 64.779 47.1608 65.8872 47.1626C66.3988 47.1634 66.9106 47.1641 67.4226 47.1633C67.5142 47.1633 67.6058 47.1484 67.7216 47.1295C67.7872 47.1189 67.8605 47.1069 67.9461 47.0957C63.3164 40.1716 58.7374 33.3235 54.1528 26.4697L57.8093 22.7389ZM140.948 92.2332V13.4712C141.936 13.4472 142.895 13.4516 143.875 13.4562C144.272 13.4581 144.672 13.4599 145.08 13.4599V14.4559V91.6368C145.08 92.2585 145.079 92.8805 145.078 93.5026C145.076 94.7471 145.074 95.992 145.08 97.2357C145.085 98.5074 144.705 99.6694 144.095 100.767C143.07 102.612 141.612 104.067 139.912 105.285C137.154 107.26 134.095 108.493 130.723 108.889C129.04 109.086 127.352 109.05 125.711 108.538C125.241 108.391 124.774 108.217 124.335 107.995C121.881 106.748 120.876 104.427 121.627 101.78C122.114 100.069 123.085 98.6481 124.318 97.3989C127.118 94.5572 130.532 92.8494 134.419 92.0644C136.558 91.634 138.702 91.6255 140.948 92.2361V92.2332ZM43.8973 85.1685H43.8945V84.4369C43.8945 82.1419 43.8948 79.8472 43.8951 77.5527V77.5523V77.552V77.5517V77.5514V77.551V77.5507V77.5504V77.5501V77.5498C43.8957 72.9619 43.8963 68.3744 43.8945 63.7856C43.8945 63.403 43.8776 63.0203 43.8354 62.6405C43.7534 61.8931 43.6621 61.1472 43.5684 60.3818L43.5684 60.3814C43.5365 60.1213 43.5044 59.8589 43.4723 59.5934C45.8814 57.8547 48.4706 56.4507 51.4032 55.7473C53.4802 55.2494 55.5797 55.0749 57.6905 55.4857C60.9045 56.1103 62.9815 58.0094 63.9103 61.1521C64.2649 62.3507 64.3718 63.5802 64.3718 64.821V84.2569V85.1488H69.8514V84.4426C69.8514 82.7815 69.852 81.1203 69.8527 79.459V79.4587V79.4585V79.4582V79.458V79.4577V79.4575V79.4572V79.457V79.4567V79.4512C69.8547 74.0521 69.8567 68.6522 69.8373 63.2539C69.8345 62.2241 69.7304 61.1831 69.5531 60.1702C68.7285 55.435 65.5004 52.1066 60.7863 51.1529C57.1445 50.4157 53.5759 50.8068 50.0973 52.0504C47.4884 52.9816 45.175 54.4447 43.0023 56.1469C42.8811 56.2409 42.7564 56.3303 42.6267 56.4232L42.6266 56.4234C42.5546 56.475 42.481 56.5277 42.4057 56.583L42.3779 56.5378L42.3599 56.509L42.314 56.436C42.2681 56.3632 42.231 56.3045 42.1974 56.2425C40.7761 53.6372 38.55 52.0504 35.7328 51.3188C31.9728 50.3426 28.2803 50.7083 24.6976 52.1657C22.4714 53.0717 20.4873 54.3912 18.6045 55.8655C18.4741 55.9682 18.3423 56.0668 18.1654 56.1991C18.0902 56.2553 18.0069 56.3176 17.9122 56.3888V51.5411C16.989 51.4004 13.0123 51.4398 12.5536 51.5805C12.4298 52.5399 12.4748 84.6761 12.6071 85.16H17.9262V84.2681V60.9861C17.9262 60.9186 17.9281 60.8508 17.93 60.783C17.9337 60.6473 17.9375 60.5116 17.9262 60.3784C17.9009 60.0521 18.0247 59.827 18.2949 59.6441C18.6497 59.4031 18.9993 59.1542 19.3488 58.9055L19.349 58.9054C19.9338 58.489 20.5184 58.0729 21.1262 57.6943C24.0785 55.8543 27.2896 55.0271 30.7767 55.3338C34.2383 55.6404 36.9176 57.6043 37.9674 61.0199C38.3811 62.3676 38.4937 63.7547 38.4937 65.153C38.4965 71.565 38.4965 77.9743 38.4965 84.3863C38.4965 84.5692 38.5035 84.752 38.5106 84.9369L38.5106 84.9378L38.5107 84.9392C38.5136 85.0152 38.5165 85.0916 38.519 85.1685H43.8945V85.1713L43.8973 85.1685ZM85.0518 47.8498C79.1726 47.7457 74.2193 45.5736 70.4875 40.996C64.4281 33.5626 65.6693 22.874 73.2118 16.8953C77.059 13.8482 81.4607 12.4837 86.3549 12.8213C92.0315 13.2124 96.6949 15.6236 100.112 20.1787C106.07 28.1213 104.009 39.1728 95.6226 44.693C92.4199 46.8003 88.9019 47.8723 85.0518 47.8498ZM72.072 30.3327C72.086 37.7239 78.4212 43.2862 85.2517 43.2637C90.6778 43.244 98.1865 38.8774 98.164 30.2202C98.1471 23.1863 92.1919 17.3454 85.125 17.3764C77.8977 17.4073 72.0354 23.2285 72.072 30.3355V30.3327ZM4.39524 21.018L4.39753 21.0227L4.38909 21.0199L4.39524 21.018ZM4.4606 20.9987C4.44165 21.0041 4.4201 21.0103 4.39524 21.018L4.32543 20.8737L4.32441 20.8716C3.80532 19.7988 3.28287 18.719 2.73987 17.593C2.79431 17.552 2.84745 17.5099 2.9003 17.4681L2.90038 17.4681L2.90045 17.468L2.90048 17.468L2.90057 17.4679L2.90063 17.4679L2.90067 17.4678L2.90071 17.4678C3.00342 17.3866 3.10499 17.3062 3.21268 17.2357C6.59556 15.0383 10.2599 13.5444 14.2704 13.0098C17.1607 12.6243 20.0623 12.5737 22.9077 13.3727C24.8271 13.9101 26.6423 14.7007 28.1255 16.0793C30.0928 17.9053 31.2663 20.1646 31.6238 22.8262C31.742 23.6928 31.7983 24.5734 31.7983 25.4484C31.8092 30.8709 31.8082 36.295 31.8073 41.7183V41.7185V41.7187V41.7189V41.7192V41.7194V41.7196C31.807 43.2689 31.8067 44.818 31.8067 46.367V47.1267H26.4003V42.8557C26.3022 42.923 26.2168 42.9809 26.1401 43.033C25.9858 43.1377 25.8667 43.2185 25.7502 43.3031C22.6628 45.6046 19.2433 47.1182 15.4074 47.6022C12.9448 47.9117 10.4709 48.0523 8.03652 47.3743C4.11609 46.2826 1.45088 43.8771 0.384235 39.8818C-0.116723 38.0024 -0.136424 36.0948 0.375792 34.2126C1.14693 31.385 3.0213 29.5224 5.64993 28.3632C7.35825 27.612 9.16789 27.2744 11.0169 27.1478C12.092 27.0746 13.1756 27.0606 14.2535 27.0578C16.8835 27.0499 19.5135 27.0516 22.1435 27.0534C23.2707 27.0542 24.3978 27.0549 25.525 27.0549H26.3384C26.6057 23.5859 25.8234 20.626 22.8542 18.5975C21.6074 17.7478 20.1777 17.3173 18.6861 17.1541C13.6399 16.6027 9.05813 17.8575 4.9013 20.7357C4.79154 20.8117 4.67897 20.8877 4.56358 20.9608C4.53815 20.9765 4.50729 20.9853 4.4606 20.9987ZM26.389 29.4209C26.3115 29.4137 26.2476 29.4065 26.1924 29.4003L26.1924 29.4003L26.1922 29.4003L26.1922 29.4003C26.0965 29.3896 26.0266 29.3817 25.9556 29.3817C24.7754 29.3817 23.5951 29.3804 22.4148 29.379C19.8182 29.376 17.2216 29.3729 14.625 29.3845C12.7196 29.393 10.865 29.6997 9.12568 30.5212C7.53274 31.2724 6.35634 32.4232 5.75969 34.1057C5.36005 35.2311 5.30094 36.3959 5.44448 37.5663C5.69777 39.6146 6.54771 41.3505 8.20819 42.6278C9.57879 43.6857 11.1492 44.2963 12.866 44.3976C17.5575 44.6733 21.9254 43.6604 25.8656 41.0157C26.2371 40.7681 26.4031 40.5121 26.4003 40.0422C26.3834 37.5481 26.3855 35.0541 26.3876 32.5588C26.3883 31.7269 26.389 30.8948 26.389 30.0626V29.4209ZM106.472 85.16H101.094V80.2898C100.947 80.3965 100.824 80.4857 100.715 80.5653C100.576 80.6663 100.458 80.7519 100.34 80.8384C97.4069 82.9936 94.2126 84.6001 90.6384 85.3739C87.6354 86.0238 84.6128 86.1448 81.6183 85.3373C77.014 84.0965 74.4867 80.9566 73.6424 76.3762C73.4482 75.3211 73.3891 74.2295 73.3863 73.1547C73.3694 67.9597 73.3715 62.7631 73.3736 57.5674V57.5671V57.5668C73.3743 55.8348 73.375 54.1029 73.375 52.3711V51.4989C74.4883 51.4535 75.582 51.458 76.6885 51.4625C77.3639 51.4653 78.0441 51.4681 78.7364 51.4595C78.7388 51.5106 78.7415 51.5606 78.7443 51.6097L78.7515 51.7333L78.7515 51.7337C78.7626 51.921 78.773 52.0968 78.773 52.2726V71.5031C78.773 72.924 78.8884 74.3364 79.3218 75.7009C80.2646 78.6692 82.3163 80.4389 85.3192 81.117C87.8324 81.6853 90.3344 81.4321 92.797 80.7934C95.6648 80.0478 98.2344 78.6945 100.565 76.8657C100.961 76.5534 101.105 76.2299 101.105 75.7319C101.093 69.0597 101.093 62.3875 101.094 55.7152L101.094 52.3852V51.5017H106.472V85.16ZM109.137 79.9976L108.587 80.858L108.149 81.5418L108.147 81.5446C108.18 81.5684 108.212 81.5913 108.242 81.6134L108.32 81.6703L108.32 81.6704L108.321 81.6709C108.44 81.7583 108.54 81.8313 108.645 81.8935C108.791 81.9788 108.936 82.0656 109.081 82.1525L109.081 82.1527L109.082 82.1529L109.082 82.1531L109.082 82.1533L109.082 82.1534L109.082 82.1534L109.083 82.1535L109.083 82.1536C109.497 82.4014 109.911 82.6491 110.342 82.8614C115.745 85.5202 121.439 86.4149 127.391 85.5624C129.544 85.2529 131.579 84.5298 133.389 83.2778C135.266 81.9751 136.476 80.2195 136.881 77.9546C137.064 76.9304 137.059 75.9007 136.955 74.8625C136.735 72.6848 135.789 70.9151 134.03 69.6068C133.51 69.2185 132.938 68.8922 132.364 68.5883C130.625 67.6655 128.753 67.0943 126.873 66.5569C125.938 66.2896 124.999 66.0297 124.061 65.7697C122.748 65.4058 121.434 65.0418 120.127 64.6578C118.833 64.2752 117.58 63.7744 116.435 63.0372C115.335 62.3254 114.831 61.2984 114.831 60.0211C114.831 59.5541 114.895 59.0758 115.014 58.6228C115.453 56.9459 116.593 55.8852 118.143 55.2353C119.277 54.7598 120.482 54.5882 121.701 54.5432C124.901 54.425 127.957 55.1115 130.923 56.2425C131.651 56.5195 132.357 56.8557 133.082 57.2007L133.082 57.2009C133.417 57.3604 133.757 57.5219 134.104 57.6802C134.345 57.2482 134.591 56.8101 134.839 56.3667L134.844 56.3591C135.207 55.7108 135.576 55.0512 135.95 54.3828C135.853 54.3255 135.767 54.273 135.686 54.2242C135.518 54.1219 135.376 54.036 135.229 53.9579C130.186 51.2851 124.833 50.3032 119.176 51.0516C117.361 51.2907 115.619 51.8225 114.037 52.7875C110.629 54.8695 109.346 58.1107 109.892 61.954C109.993 62.6518 110.238 63.3551 110.539 63.9966C111.152 65.3105 112.256 66.1659 113.485 66.8721C114.856 67.6598 116.314 68.2619 117.825 68.698C119.689 69.2364 121.56 69.7445 123.431 70.2528L123.432 70.2532L123.433 70.2536L123.435 70.254C124.359 70.505 125.283 70.756 126.206 71.0108C127.422 71.3456 128.593 71.7845 129.705 72.4006C132.556 73.9818 132.674 78.371 130.273 80.2532C129.257 81.0523 128.123 81.5474 126.873 81.8035C124.735 82.2424 122.584 82.2339 120.429 81.9498C117.006 81.4996 113.747 80.5599 110.781 78.7339C110.657 78.6587 110.526 78.591 110.383 78.5167L110.382 78.5164C110.311 78.4796 110.237 78.441 110.159 78.3991C109.816 78.9354 109.478 79.4643 109.137 79.9976ZM105.687 43.5282L105.688 43.5267C105.821 43.6109 105.942 43.6902 106.056 43.7651C106.253 43.8937 106.429 44.0091 106.613 44.1134C112.424 47.4108 118.655 48.4518 125.23 47.4671C127.155 47.1801 128.973 46.5049 130.625 45.4442C132.477 44.2541 133.763 42.6335 134.309 40.4755C134.593 39.3501 134.605 38.2078 134.52 37.057C134.337 34.5868 133.248 32.6285 131.163 31.278C130.394 30.78 129.561 30.3636 128.722 29.9923C127.04 29.2477 125.274 28.7536 123.507 28.2594L123.507 28.2593L123.506 28.2592L123.506 28.259C123.13 28.1539 122.754 28.0488 122.379 27.9412C122.008 27.835 121.637 27.7297 121.266 27.6244L121.264 27.6239C119.648 27.1656 118.031 26.7066 116.441 26.1715C115.515 25.862 114.639 25.3612 113.801 24.8491C112.849 24.2695 112.416 23.3157 112.396 22.2241C112.388 21.6248 112.447 21.0002 112.616 20.4291C113.145 18.6368 114.459 17.6099 116.165 17.0275C117.26 16.6561 118.402 16.4986 119.55 16.4986C123.702 16.5042 127.6 17.5142 131.241 19.5118C131.319 19.5545 131.4 19.5918 131.493 19.6339L131.493 19.6341C131.534 19.653 131.578 19.6729 131.624 19.6947C131.96 19.0956 132.29 18.5054 132.621 17.9136L132.624 17.9082C132.911 17.3957 133.198 16.8821 133.49 16.3607C133.413 16.3124 133.342 16.2667 133.276 16.2235L133.275 16.2233C133.132 16.1305 133.006 16.049 132.874 15.978C127.6 13.1645 122.007 12.1826 116.1 13.1279C114.285 13.4177 112.574 14.0395 111.051 15.1002C109.286 16.3297 108.082 17.9616 107.57 20.0661C107.299 21.1662 107.263 22.2888 107.361 23.417C107.53 25.3584 108.344 26.9565 109.934 28.11C110.48 28.5039 111.048 28.8922 111.659 29.1595L111.993 29.3056C113.217 29.8415 114.451 30.3817 115.726 30.766C117.536 31.3136 119.366 31.801 121.194 32.2881C122.015 32.5067 122.835 32.7253 123.654 32.9493C124.87 33.2813 126.066 33.6695 127.158 34.3195C127.946 34.7865 128.646 35.3661 129.021 36.2186C129.769 37.9208 129.947 40.543 127.69 42.3183C126.769 43.0442 125.722 43.486 124.588 43.7336C122.342 44.2231 120.085 44.209 117.814 43.8967C114.389 43.4241 111.141 42.4478 108.183 40.619C108.086 40.5591 107.982 40.5104 107.871 40.458C107.815 40.4316 107.757 40.4043 107.696 40.3742C107.044 41.4023 106.41 42.3956 105.74 43.4453L105.688 43.5267L105.681 43.5225L105.687 43.5282ZM178.671 58.1007L180.012 57.3314L180.017 57.3342C179.807 57.1189 179.609 56.9111 179.417 56.71L179.417 56.7099L179.417 56.7095C179.046 56.3197 178.699 55.9556 178.331 55.6123C172.554 50.2216 163.764 49.2481 156.785 53.2152C149.614 57.292 146.231 65.4709 148.555 73.2475C150.942 81.2323 158.02 85.1122 163.545 85.7368C168.839 86.3361 173.572 85.025 177.724 81.6741C178.686 80.8975 179.558 80.0281 180.375 78.99C179.41 78.4296 178.467 77.8822 177.534 77.3408L177.498 77.3202L176.221 76.5788C170.612 83.0639 161.856 82.3184 156.996 77.5016C152.166 72.713 151.885 64.8913 156.441 59.8495C158.676 57.3764 161.451 55.8374 164.797 55.4885C169.168 55.0299 172.829 56.5211 175.86 59.7116C176.794 59.1775 177.715 58.6487 178.671 58.1007ZM142.814 7.88071C142.296 7.88071 141.649 7.73722 141.075 7.34051C139.431 6.2151 139.544 3.81234 141.317 2.8895C142.566 2.23958 143.841 2.30429 145.012 3.11177C146.464 4.11057 146.504 6.09974 145.116 7.18858C144.491 7.67813 143.771 7.88915 142.814 7.88071ZM4.74921 85.9322C4.86015 85.9495 4.97038 85.9666 5.07861 85.9872C5.19802 85.9658 5.31574 85.9478 5.43176 85.9301C5.68217 85.8918 5.92469 85.8547 6.15933 85.7874C7.30197 85.4583 8.00275 84.6029 8.09844 83.4635C8.1885 82.4028 7.54963 81.3449 6.53364 80.8497C5.83568 80.5092 5.0955 80.4811 4.35813 80.6105C3.11137 80.8272 2.14322 81.916 2.08131 83.1118C2.01939 84.3103 2.80741 85.4048 4.0373 85.7846C4.2696 85.8576 4.51107 85.8951 4.74921 85.9322Z" fill="white"/>
<path d="M80.552 109.126C77.885 109.126 76.667 108.118 76.247 106.984L75.932 109H75.05V94.153H76.604V100.096C77.045 99.004 78.179 98.122 80.594 98.122C84.311 98.122 85.256 100.558 85.256 103.561C85.256 106.606 84.269 109.126 80.552 109.126ZM76.562 103.561C76.562 106.144 77.192 107.824 80.174 107.824C83.051 107.824 83.66 106.123 83.66 103.561C83.66 101.104 83.051 99.466 80.111 99.466C77.087 99.466 76.562 101.146 76.562 103.561ZM91.816 109.126C87.427 109.126 86.44 106.459 86.44 103.561C86.44 100.789 87.532 98.122 91.795 98.122C95.554 98.122 96.667 100.495 96.667 103.477C96.667 103.771 96.667 103.981 96.646 104.275H88.099C88.204 106.396 89.17 107.887 91.774 107.887C94.021 107.887 94.84 106.774 95.029 105.64H96.667C96.499 107.488 95.26 109.126 91.816 109.126ZM88.099 103.015H95.029C95.029 100.957 94.105 99.382 91.669 99.382C88.939 99.382 88.162 101.083 88.099 103.015ZM102.541 109.105C99.7476 109.105 98.5506 108.181 98.5506 105.85V99.55H97.0806V98.563L98.5506 98.206V95.56H100.042V98.248H103.486V99.55H100.105V105.85C100.105 107.173 100.693 107.782 102.751 107.782C102.982 107.782 103.213 107.782 103.486 107.761V109.063C103.15 109.084 102.835 109.105 102.541 109.105ZM108.34 109.126C106.051 109.126 104.203 108.139 104.203 105.934C104.203 103.981 105.568 103.162 108.613 102.805L112.519 102.343C112.498 100.222 111.868 99.382 109.159 99.382C106.702 99.382 106.051 100.39 106.051 101.986H104.497C104.497 99.76 105.442 98.122 109.138 98.122C113.464 98.122 114.094 99.97 114.094 102.826V109H113.212L112.876 106.816C112.288 108.139 110.587 109.126 108.34 109.126ZM105.841 105.913C105.841 107.194 106.912 107.866 108.676 107.866C110.818 107.866 112.519 106.648 112.519 104.275V103.54L108.844 104.044C106.639 104.338 105.841 104.821 105.841 105.913Z" fill="white"/>
</svg>
